<mxfile host="app.diagrams.net" agent="Mozilla/5.0 (Windows NT 10.0; Win64; x64) AppleWebKit/537.36 (KHTML, like Gecko) Chrome/134.0.0.0 Safari/537.36 Edg/134.0.0.0" version="26.1.0">
  <diagram name="第 1 页" id="cTWxbgxD7N5LHfKa1-dM">
    <mxGraphModel dx="1460" dy="976" grid="1" gridSize="10" guides="1" tooltips="1" connect="1" arrows="1" fold="1" page="1" pageScale="1" pageWidth="827" pageHeight="1169" math="0" shadow="0">
      <root>
        <mxCell id="0" />
        <mxCell id="1" parent="0" />
        <mxCell id="bbCFtQkSoRX4-R00seL9-8" style="edgeStyle=orthogonalEdgeStyle;rounded=0;orthogonalLoop=1;jettySize=auto;html=1;" edge="1" parent="1" source="xt2rlN9HSo6g9uyUXV9E-1" target="bbCFtQkSoRX4-R00seL9-5">
          <mxGeometry relative="1" as="geometry">
            <Array as="points">
              <mxPoint x="350" y="255" />
              <mxPoint x="350" y="275" />
            </Array>
          </mxGeometry>
        </mxCell>
        <mxCell id="bbCFtQkSoRX4-R00seL9-9" style="edgeStyle=orthogonalEdgeStyle;rounded=0;orthogonalLoop=1;jettySize=auto;html=1;entryX=0;entryY=0.5;entryDx=0;entryDy=0;" edge="1" parent="1" source="xt2rlN9HSo6g9uyUXV9E-1" target="bbCFtQkSoRX4-R00seL9-3">
          <mxGeometry relative="1" as="geometry" />
        </mxCell>
        <mxCell id="xt2rlN9HSo6g9uyUXV9E-1" value="大键盘输入" style="rounded=0;whiteSpace=wrap;html=1;" parent="1" vertex="1">
          <mxGeometry x="230" y="230" width="90" height="50" as="geometry" />
        </mxCell>
        <mxCell id="bbCFtQkSoRX4-R00seL9-12" style="edgeStyle=orthogonalEdgeStyle;rounded=0;orthogonalLoop=1;jettySize=auto;html=1;" edge="1" parent="1" source="bbCFtQkSoRX4-R00seL9-1">
          <mxGeometry relative="1" as="geometry">
            <mxPoint x="380" y="435" as="targetPoint" />
          </mxGeometry>
        </mxCell>
        <mxCell id="bbCFtQkSoRX4-R00seL9-1" value="小键盘输入" style="rounded=0;whiteSpace=wrap;html=1;" vertex="1" parent="1">
          <mxGeometry x="230" y="410" width="90" height="50" as="geometry" />
        </mxCell>
        <mxCell id="bbCFtQkSoRX4-R00seL9-10" style="edgeStyle=orthogonalEdgeStyle;rounded=0;orthogonalLoop=1;jettySize=auto;html=1;entryX=0;entryY=0.5;entryDx=0;entryDy=0;" edge="1" parent="1" source="bbCFtQkSoRX4-R00seL9-2" target="bbCFtQkSoRX4-R00seL9-11">
          <mxGeometry relative="1" as="geometry">
            <mxPoint x="370" y="345" as="targetPoint" />
            <Array as="points">
              <mxPoint x="350" y="345" />
              <mxPoint x="350" y="325" />
            </Array>
          </mxGeometry>
        </mxCell>
        <mxCell id="bbCFtQkSoRX4-R00seL9-15" style="edgeStyle=orthogonalEdgeStyle;rounded=0;orthogonalLoop=1;jettySize=auto;html=1;entryX=0;entryY=0.5;entryDx=0;entryDy=0;" edge="1" parent="1" source="bbCFtQkSoRX4-R00seL9-2" target="bbCFtQkSoRX4-R00seL9-14">
          <mxGeometry relative="1" as="geometry">
            <Array as="points">
              <mxPoint x="350" y="345" />
              <mxPoint x="350" y="365" />
            </Array>
          </mxGeometry>
        </mxCell>
        <mxCell id="bbCFtQkSoRX4-R00seL9-2" value="鼠标输入" style="rounded=0;whiteSpace=wrap;html=1;" vertex="1" parent="1">
          <mxGeometry x="230" y="320" width="90" height="50" as="geometry" />
        </mxCell>
        <mxCell id="bbCFtQkSoRX4-R00seL9-19" style="edgeStyle=entityRelationEdgeStyle;rounded=0;orthogonalLoop=1;jettySize=auto;html=1;startArrow=none;endArrow=none;segment=10;curved=1;sourcePerimeterSpacing=0;targetPerimeterSpacing=0;entryX=0;entryY=0.5;entryDx=0;entryDy=0;" edge="1" parent="1" source="bbCFtQkSoRX4-R00seL9-3" target="bbCFtQkSoRX4-R00seL9-16">
          <mxGeometry relative="1" as="geometry" />
        </mxCell>
        <mxCell id="bbCFtQkSoRX4-R00seL9-3" value="WSAD" style="whiteSpace=wrap;html=1;rounded=1;arcSize=50;align=center;verticalAlign=middle;strokeWidth=1;autosize=1;spacing=4;treeFolding=1;treeMoving=1;newEdgeStyle={&quot;edgeStyle&quot;:&quot;entityRelationEdgeStyle&quot;,&quot;startArrow&quot;:&quot;none&quot;,&quot;endArrow&quot;:&quot;none&quot;,&quot;segment&quot;:10,&quot;curved&quot;:1,&quot;sourcePerimeterSpacing&quot;:0,&quot;targetPerimeterSpacing&quot;:0};" vertex="1" parent="1">
          <mxGeometry x="380" y="200" width="80" height="30" as="geometry" />
        </mxCell>
        <mxCell id="bbCFtQkSoRX4-R00seL9-20" style="edgeStyle=entityRelationEdgeStyle;rounded=0;orthogonalLoop=1;jettySize=auto;html=1;startArrow=none;endArrow=none;segment=10;curved=1;sourcePerimeterSpacing=0;targetPerimeterSpacing=0;entryX=0;entryY=0.5;entryDx=0;entryDy=0;" edge="1" parent="1" source="bbCFtQkSoRX4-R00seL9-5" target="bbCFtQkSoRX4-R00seL9-16">
          <mxGeometry relative="1" as="geometry" />
        </mxCell>
        <mxCell id="bbCFtQkSoRX4-R00seL9-5" value="QER" style="whiteSpace=wrap;html=1;rounded=1;arcSize=50;align=center;verticalAlign=middle;strokeWidth=1;autosize=1;spacing=4;treeFolding=1;treeMoving=1;newEdgeStyle={&quot;edgeStyle&quot;:&quot;entityRelationEdgeStyle&quot;,&quot;startArrow&quot;:&quot;none&quot;,&quot;endArrow&quot;:&quot;none&quot;,&quot;segment&quot;:10,&quot;curved&quot;:1,&quot;sourcePerimeterSpacing&quot;:0,&quot;targetPerimeterSpacing&quot;:0};" vertex="1" parent="1">
          <mxGeometry x="380" y="260" width="80" height="30" as="geometry" />
        </mxCell>
        <mxCell id="bbCFtQkSoRX4-R00seL9-21" style="edgeStyle=entityRelationEdgeStyle;rounded=0;orthogonalLoop=1;jettySize=auto;html=1;startArrow=none;endArrow=none;segment=10;curved=1;sourcePerimeterSpacing=0;targetPerimeterSpacing=0;entryX=0;entryY=0.5;entryDx=0;entryDy=0;" edge="1" parent="1" source="bbCFtQkSoRX4-R00seL9-11" target="bbCFtQkSoRX4-R00seL9-17">
          <mxGeometry relative="1" as="geometry" />
        </mxCell>
        <mxCell id="bbCFtQkSoRX4-R00seL9-11" value="左键" style="whiteSpace=wrap;html=1;rounded=1;arcSize=50;align=center;verticalAlign=middle;strokeWidth=1;autosize=1;spacing=4;treeFolding=1;treeMoving=1;newEdgeStyle={&quot;edgeStyle&quot;:&quot;entityRelationEdgeStyle&quot;,&quot;startArrow&quot;:&quot;none&quot;,&quot;endArrow&quot;:&quot;none&quot;,&quot;segment&quot;:10,&quot;curved&quot;:1,&quot;sourcePerimeterSpacing&quot;:0,&quot;targetPerimeterSpacing&quot;:0};" vertex="1" parent="1">
          <mxGeometry x="382.5" y="310" width="75" height="30" as="geometry" />
        </mxCell>
        <mxCell id="bbCFtQkSoRX4-R00seL9-23" style="edgeStyle=entityRelationEdgeStyle;rounded=0;orthogonalLoop=1;jettySize=auto;html=1;startArrow=none;endArrow=none;segment=10;curved=1;sourcePerimeterSpacing=0;targetPerimeterSpacing=0;" edge="1" parent="1" source="bbCFtQkSoRX4-R00seL9-13" target="bbCFtQkSoRX4-R00seL9-18">
          <mxGeometry relative="1" as="geometry" />
        </mxCell>
        <mxCell id="bbCFtQkSoRX4-R00seL9-13" value="↑↓←→" style="whiteSpace=wrap;html=1;rounded=1;arcSize=50;align=center;verticalAlign=middle;strokeWidth=1;autosize=1;spacing=4;treeFolding=1;treeMoving=1;newEdgeStyle={&quot;edgeStyle&quot;:&quot;entityRelationEdgeStyle&quot;,&quot;startArrow&quot;:&quot;none&quot;,&quot;endArrow&quot;:&quot;none&quot;,&quot;segment&quot;:10,&quot;curved&quot;:1,&quot;sourcePerimeterSpacing&quot;:0,&quot;targetPerimeterSpacing&quot;:0};" vertex="1" parent="1">
          <mxGeometry x="380" y="420" width="80" height="30" as="geometry" />
        </mxCell>
        <mxCell id="bbCFtQkSoRX4-R00seL9-22" style="edgeStyle=entityRelationEdgeStyle;rounded=0;orthogonalLoop=1;jettySize=auto;html=1;startArrow=none;endArrow=none;segment=10;curved=1;sourcePerimeterSpacing=0;targetPerimeterSpacing=0;entryX=0;entryY=0.5;entryDx=0;entryDy=0;" edge="1" parent="1" source="bbCFtQkSoRX4-R00seL9-14" target="bbCFtQkSoRX4-R00seL9-17">
          <mxGeometry relative="1" as="geometry" />
        </mxCell>
        <mxCell id="bbCFtQkSoRX4-R00seL9-14" value="右键" style="whiteSpace=wrap;html=1;rounded=1;arcSize=50;align=center;verticalAlign=middle;strokeWidth=1;autosize=1;spacing=4;treeFolding=1;treeMoving=1;newEdgeStyle={&quot;edgeStyle&quot;:&quot;entityRelationEdgeStyle&quot;,&quot;startArrow&quot;:&quot;none&quot;,&quot;endArrow&quot;:&quot;none&quot;,&quot;segment&quot;:10,&quot;curved&quot;:1,&quot;sourcePerimeterSpacing&quot;:0,&quot;targetPerimeterSpacing&quot;:0};" vertex="1" parent="1">
          <mxGeometry x="382.5" y="350" width="74.5" height="30" as="geometry" />
        </mxCell>
        <mxCell id="bbCFtQkSoRX4-R00seL9-16" value="物体移动/转动" style="shape=ext;double=1;rounded=0;whiteSpace=wrap;html=1;" vertex="1" parent="1">
          <mxGeometry x="500" y="220" width="120" height="40" as="geometry" />
        </mxCell>
        <mxCell id="bbCFtQkSoRX4-R00seL9-17" value="选中/调整物体" style="shape=ext;double=1;rounded=0;whiteSpace=wrap;html=1;" vertex="1" parent="1">
          <mxGeometry x="500" y="320" width="120" height="40" as="geometry" />
        </mxCell>
        <mxCell id="bbCFtQkSoRX4-R00seL9-35" style="edgeStyle=orthogonalEdgeStyle;rounded=0;orthogonalLoop=1;jettySize=auto;html=1;entryX=0.013;entryY=0.77;entryDx=0;entryDy=0;entryPerimeter=0;" edge="1" parent="1" source="bbCFtQkSoRX4-R00seL9-18" target="bbCFtQkSoRX4-R00seL9-27">
          <mxGeometry relative="1" as="geometry" />
        </mxCell>
        <mxCell id="bbCFtQkSoRX4-R00seL9-18" value="控制选中项" style="shape=ext;double=1;rounded=0;whiteSpace=wrap;html=1;" vertex="1" parent="1">
          <mxGeometry x="500" y="415" width="120" height="40" as="geometry" />
        </mxCell>
        <mxCell id="bbCFtQkSoRX4-R00seL9-27" value="&lt;font style=&quot;font-size: 24px;&quot;&gt;Game&lt;/font&gt;" style="rounded=0;whiteSpace=wrap;html=1;" vertex="1" parent="1">
          <mxGeometry x="650" y="185" width="170" height="325" as="geometry" />
        </mxCell>
        <mxCell id="bbCFtQkSoRX4-R00seL9-29" style="edgeStyle=orthogonalEdgeStyle;rounded=0;orthogonalLoop=1;jettySize=auto;html=1;exitX=1;exitY=0.25;exitDx=0;exitDy=0;entryX=0;entryY=0.5;entryDx=0;entryDy=0;" edge="1" parent="1" source="bbCFtQkSoRX4-R00seL9-28" target="xt2rlN9HSo6g9uyUXV9E-1">
          <mxGeometry relative="1" as="geometry" />
        </mxCell>
        <mxCell id="bbCFtQkSoRX4-R00seL9-30" style="edgeStyle=orthogonalEdgeStyle;rounded=0;orthogonalLoop=1;jettySize=auto;html=1;exitX=1;exitY=0.5;exitDx=0;exitDy=0;entryX=0;entryY=0.5;entryDx=0;entryDy=0;" edge="1" parent="1" source="bbCFtQkSoRX4-R00seL9-28" target="bbCFtQkSoRX4-R00seL9-2">
          <mxGeometry relative="1" as="geometry" />
        </mxCell>
        <mxCell id="bbCFtQkSoRX4-R00seL9-31" style="edgeStyle=orthogonalEdgeStyle;rounded=0;orthogonalLoop=1;jettySize=auto;html=1;exitX=1;exitY=0.75;exitDx=0;exitDy=0;entryX=0;entryY=0.5;entryDx=0;entryDy=0;" edge="1" parent="1" source="bbCFtQkSoRX4-R00seL9-28" target="bbCFtQkSoRX4-R00seL9-1">
          <mxGeometry relative="1" as="geometry" />
        </mxCell>
        <mxCell id="bbCFtQkSoRX4-R00seL9-28" value="&lt;font style=&quot;font-size: 24px;&quot;&gt;User&lt;/font&gt;" style="rounded=0;whiteSpace=wrap;html=1;" vertex="1" parent="1">
          <mxGeometry x="20" y="182.5" width="170" height="325" as="geometry" />
        </mxCell>
        <mxCell id="bbCFtQkSoRX4-R00seL9-32" style="edgeStyle=orthogonalEdgeStyle;rounded=0;orthogonalLoop=1;jettySize=auto;html=1;entryX=0.006;entryY=0.172;entryDx=0;entryDy=0;entryPerimeter=0;" edge="1" parent="1" source="bbCFtQkSoRX4-R00seL9-16" target="bbCFtQkSoRX4-R00seL9-27">
          <mxGeometry relative="1" as="geometry" />
        </mxCell>
        <mxCell id="bbCFtQkSoRX4-R00seL9-33" style="edgeStyle=orthogonalEdgeStyle;rounded=0;orthogonalLoop=1;jettySize=auto;html=1;entryX=-0.002;entryY=0.477;entryDx=0;entryDy=0;entryPerimeter=0;" edge="1" parent="1" source="bbCFtQkSoRX4-R00seL9-17" target="bbCFtQkSoRX4-R00seL9-27">
          <mxGeometry relative="1" as="geometry" />
        </mxCell>
      </root>
    </mxGraphModel>
  </diagram>
</mxfile>
